<svg width="78" height="78" fill="none" class="sc-hKgJUU ekASJL sc-fodVek crXZFg"><circle r="35" cx="39" cy="39" stroke="#E3E3E3"></circle><circle stroke="transparent" stroke-width="2" fill="transparent" r="35" cx="39" cy="39" stroke-dasharray="219.9114857512855 219.9114857512855" class="sc-eCstlR jRwVqS" style="stroke-dashoffset: 219.911;"></circle><circle cx="39" cy="39" r="32" fill="#E3E3E3"></circle><path d="M30.976 41.976h-.15v.15a5.504 5.504 0 005.497 5.498 5.498 5.498 0 005.49-5.498V26.05c0-1.348 1.1-2.447 2.448-2.447h8.681c1.348 0 2.447 1.099 2.447 2.447v5.365H57.141V26.05a4.203 4.203 0 00-4.199-4.199h-8.681a4.203 4.203 0 00-4.199 4.199v16.077a3.743 3.743 0 01-7.485 0v-.15h-1.601z" fill="#333333" stroke="#333333" stroke-width=".3" stroke-linecap="round"></path><path d="M47.347 32.075a2.143 2.143 0 100-4.286 2.143 2.143 0 000 4.286zM27.746 32.075a2.143 2.143 0 100-4.287 2.143 2.143 0 000 4.287zM22.737 52.208l-.065.136.136.064c4.617 2.204 9.577 3.32 14.732 3.32 5.154 0 10.114-1.116 14.732-3.32l.135-.064-.064-.136-.626-1.312-.064-.136-.136.065c-4.382 2.094-9.083 3.152-13.977 3.152-4.888 0-9.596-1.058-13.978-3.152l-.136-.065-.064.136-.625 1.312z" fill="#333333" stroke="#333333" stroke-width=".3" stroke-linecap="round"></path></svg>
